                     S A M P L E    O N L Y! ! ! :)



         

General
Complete name                    : Avatar sample.mp4
Format                           : MPEG-4
Format profile                   : Base Media
Codec ID                         : isom
File size                        : 19.6 MiB
Duration                         : 1mn 24s
Overall bit rate                 : 1 939 Kbps
Encoded date                     : UTC 2010-02-03 19:28:07
Tagged date                      : UTC 2010-02-03 19:28:07

Video
ID                               : 1
Format                           : AVC
Format/Info                      : Advanced Video Codec
Format profile                   : High@L4.1
Format settings, CABAC           : Yes
Format settings, ReFrames        : 8 frames
Codec ID                         : avc1
Codec ID/Info                    : Advanced Video Coding
Duration                         : 1mn 24s
Bit rate mode                    : Variable
Bit rate                         : 1 750 Kbps
Maximum bit rate                 : 3 034 Kbps
Width                            : 720 pixels
Height                           : 400 pixels
Display aspect ratio             : 16:9
Frame rate mode                  : Constant
Frame rate                       : 29.970 fps
Resolution                       : 8 bits
Colorimetry                      : 4:2:0
Scan type                        : Progressive
Bits/(Pixel*Frame)               : 0.203
Stream size                      : 17.7 MiB (90%)
Encoded date                     : UTC 2010-02-03 18:58:04
Tagged date                      : UTC 2010-02-03 19:28:08

Audio
ID                               : 2
Format                           : AAC
Format/Info                      : Advanced Audio Codec
Format version                   : Version 4
Format profile                   : LC
Format settings, SBR             : No
Codec ID                         : 40
Duration                         : 1mn 24s
Bit rate mode                    : Variable
Bit rate                         : 183 Kbps
Maximum bit rate                 : 195 Kbps
Channel(s)                       : 2 channels
Channel positions                : L R
Sampling rate                    : 48.0 KHz
Stream size                      : 1.84 MiB (9%)
Encoded date                     : UTC 2010-02-03 19:28:08
Tagged date                      : UTC 2010-02-03 19:28:08

                    





                     SAMPLE ONLY!